<svg preserveAspectRatio="none" overflow="visible" style="display: block;" width="24" height="24" viewBox="0 0 24 24" fill="none" xmlns="http://www.w3.org/2000/svg">
<g id="tournament">
<g id="icon">
<path d="M2.30921 2.28906C2.48689 5.12423 3.83048 7.67627 5.9216 9.41405C6.40964 10.4045 7.06121 11.3093 7.84866 12.0883C6.15303 11.3482 4.64078 10.196 3.47728 8.73601C2.69112 7.74953 2.07877 6.64932 1.65725 5.46591C1.22112 4.24148 1 2.95577 1 1.64453V1H4.91016V2.28906H2.30921Z" fill="#FCFCFC" fill-opacity="0.5"/>
<path d="M6.19922 5.08203V1H17.8008V5.08203C17.8008 8.8344 15.3526 12.0245 12 13.1962C8.64741 12.0245 6.19922 8.8344 6.19922 5.08203Z" fill="#FCFCFC" fill-opacity="0.5"/>
<path d="M19.0899 2.28906H21.6908C21.5131 5.12423 20.1695 7.67627 18.0784 9.41405C17.5904 10.4046 16.9388 11.3093 16.1513 12.0883C17.8469 11.3482 19.3592 10.196 20.5227 8.73601C21.3089 7.74953 21.9212 6.64932 22.3427 5.46591C22.7789 4.24148 23 2.95577 23 1.64453V1H19.0899V2.28906Z" fill="#FCFCFC" fill-opacity="0.5"/>
<path d="M16.9414 21.7109V16.5547H13.2891V14.0651C13.0086 14.1934 12.7206 14.3099 12.4253 14.4131L12 14.5617L11.5747 14.4131C11.2794 14.3099 10.9914 14.1934 10.7109 14.0651V16.5547H7.05859V21.7109H5.76953V23H18.2305V21.7109H16.9414Z" fill="#FCFCFC" fill-opacity="0.5"/>
</g>
</g>
</svg>
