<svg preserveAspectRatio="none" overflow="visible" style="display: block;" width="24" height="24" viewBox="0 0 24 24" fill="none" xmlns="http://www.w3.org/2000/svg">
<g id="playing cards">
<g id="icon">
<path d="M7.34412 1.25165C7.49913 1.22989 7.65752 1.21864 7.81853 1.21864H14.2063L9.9471 0.077383C8.89205 -0.205316 7.8112 0.309192 7.34412 1.25165Z" fill="#3B6F6D"/>
<path d="M6.9726 5.02331L7.27637 4.01068L7.58017 5.02331H6.9726Z" fill="#3B6F6D"/>
<path d="M16.3857 19.0316L16.6894 20.0442L16.9932 19.0316H16.3857Z" fill="#3B6F6D"/>
<path fill-rule="evenodd" clip-rule="evenodd" d="M5.56394 4.60054C5.56394 3.65944 6.14054 2.85301 6.95974 2.51527C7.22443 2.40614 7.51445 2.34594 7.81853 2.34594H16.1815C17.4266 2.34594 18.4361 3.35536 18.4361 4.60054V19.3995C18.4361 20.3406 17.8595 21.147 17.0403 21.4848C16.7756 21.5939 16.4855 21.6541 16.1815 21.6541H7.81853C6.57335 21.6541 5.56394 20.6447 5.56394 19.3995V4.60054ZM7.42827 3.75766L8.08646 5.83355H7.8333L7.63078 5.27651H6.87132L6.71944 5.83355H6.46628L7.12447 3.75766H7.42827ZM11.9951 15.0307C11.9951 15.0307 12.5014 14.5608 14.3241 13.5166C16.1468 12.4725 16.1974 10.1231 15.1848 9.34002C13.8684 8.34807 11.9951 9.80989 11.9951 9.80989C11.9951 9.80989 10.1217 8.34807 8.85599 9.34002C7.79275 10.0709 7.84338 12.4725 9.66608 13.5166C11.4888 14.5608 11.9951 15.0307 11.9951 15.0307ZM7.27637 7.9599C7.27637 7.9599 7.37763 7.8588 7.8333 7.6056C8.28897 7.3524 8.28897 6.7449 8.03582 6.59298C7.73204 6.33977 7.27637 6.69426 7.27637 6.69426C7.27637 6.69426 6.8207 6.33977 6.5169 6.59298C6.26377 6.79554 6.26377 7.3524 6.71944 7.6056C7.17511 7.8588 7.27637 7.9599 7.27637 7.9599ZM16.8413 20.2973L17.4995 18.2214H17.2464L17.0438 18.7784H16.2844L16.1325 18.2214H15.8793L16.5375 20.2973H16.8413ZM16.6894 16.095C16.6894 16.095 16.7907 16.1961 17.2464 16.4493C17.702 16.7025 17.702 17.31 17.4489 17.4619C17.1451 17.7151 16.6894 17.3607 16.6894 17.3607C16.6894 17.3607 16.2338 17.7151 15.93 17.4619C15.6768 17.2594 15.6768 16.7025 16.1325 16.4493C16.5882 16.1961 16.6894 16.095 16.6894 16.095Z" fill="#3B6F6D"/>
<path d="M19.5634 4.60054C19.5634 3.78206 19.2726 3.0315 18.7887 2.44649L19.7392 2.70117C20.9419 3.02344 21.6557 4.25972 21.3334 5.46247L19.5634 12.0685V4.60054Z" fill="#3B6F6D"/>
<path d="M16.6559 22.7484C16.5009 22.7702 16.3425 22.7814 16.1815 22.7814H9.79388L14.0529 23.9226C15.1079 24.2053 16.1888 23.6908 16.6559 22.7484Z" fill="#3B6F6D"/>
<path d="M4.43664 19.3995C4.43664 20.218 4.72736 20.9685 5.21118 21.5535L4.26083 21.2988C3.05807 20.9766 2.34431 19.7403 2.66659 18.5375L4.43664 11.9316V19.3995Z" fill="#3B6F6D"/>
</g>
</g>
</svg>
